<svg width="25" height="25" viewBox="0 0 25 25" fill="none" xmlns="http://www.w3.org/2000/svg">
<path fill-rule="evenodd" clip-rule="evenodd" d="M14.8424 2.60417C14.8424 2.5351 14.815 2.46886 14.7662 2.42002C14.7173 2.37119 14.6511 2.34375 14.582 2.34375H7.29036C6.53063 2.34375 5.80201 2.64555 5.2648 3.18277C4.72758 3.71998 4.42578 4.4486 4.42578 5.20833V19.7917C4.42578 20.5514 4.72758 21.28 5.2648 21.8172C5.80201 22.3544 6.53063 22.6562 7.29036 22.6562H17.707C18.4668 22.6562 19.1954 22.3544 19.7326 21.8172C20.2698 21.28 20.5716 20.5514 20.5716 19.7917V9.52813C20.5716 9.45906 20.5442 9.39282 20.4953 9.34398C20.4465 9.29514 20.3803 9.26771 20.3112 9.26771H15.6237C15.4165 9.26771 15.2178 9.1854 15.0713 9.03889C14.9248 8.89237 14.8424 8.69366 14.8424 8.48646V2.60417ZM15.6237 12.7604C15.8309 12.7604 16.0296 12.8427 16.1761 12.9892C16.3226 13.1358 16.4049 13.3345 16.4049 13.5417C16.4049 13.7489 16.3226 13.9476 16.1761 14.0941C16.0296 14.2406 15.8309 14.3229 15.6237 14.3229H9.3737C9.1665 14.3229 8.96778 14.2406 8.82127 14.0941C8.67476 13.9476 8.59245 13.7489 8.59245 13.5417C8.59245 13.3345 8.67476 13.1358 8.82127 12.9892C8.96778 12.8427 9.1665 12.7604 9.3737 12.7604H15.6237ZM15.6237 16.9271C15.8309 16.9271 16.0296 17.0094 16.1761 17.1559C16.3226 17.3024 16.4049 17.5011 16.4049 17.7083C16.4049 17.9155 16.3226 18.1142 16.1761 18.2608C16.0296 18.4073 15.8309 18.4896 15.6237 18.4896H9.3737C9.1665 18.4896 8.96778 18.4073 8.82127 18.2608C8.67476 18.1142 8.59245 17.9155 8.59245 17.7083C8.59245 17.5011 8.67476 17.3024 8.82127 17.1559C8.96778 17.0094 9.1665 16.9271 9.3737 16.9271H15.6237Z" fill="#3E80F9"/>
<path d="M16.4062 2.94152C16.4062 2.74985 16.6073 2.62798 16.7563 2.74777C16.8826 2.84985 16.9948 2.9686 17.0927 3.10402L20.2313 7.4759C20.3021 7.5759 20.225 7.70506 20.1021 7.70506H16.6667C16.5976 7.70506 16.5314 7.67763 16.4825 7.62879C16.4337 7.57995 16.4062 7.51371 16.4062 7.44464V2.94152Z" fill="#3E80F9"/>
</svg>
